# xmcd
#
# Track frame offsets: 
#        150
#        12710
#        24720
#        37577
#        47227
#        57290
#        67807
#        77312
#        90662
#        103562
#        114177
#        127872
#        139375
#        151372
#        162185
#        174077
#        186492
#        198162
#        210190
#        221262
#        231667
#        242217
#        254157
#
# Disc length: 3547 seconds
#
# Revision: 4
# Processed by: cddbd v1.5.1PL0 Copyright (c) Steve Scherf et al.
# Submitted via: ExactAudioCopy v0.95b3
#
DISCID=310dd917
DTITLE=Loretta Lynn - Honky Tonk Girl [CD2]
DYEAR=1900
DGENRE=Country
TTITLE0=There Goes My Everything
TTITLE1=If You're Not Gone Too Long
TTITLE2=What Kind Of Girl {Do You Think I Am}
TTITLE3=Who Says God Is Dead
TTITLE4=Fist City
TTITLE5=You've Just Stepped In {From Stepping Out On Me}
TTITLE6=Your Squaw Is On The Warpath
TTITLE7=Woman Of The World {Leave My World Alone}
TTITLE8=LOVE L-O-V-E
TTITLE9=Who's Gonna Take The Garbage Out
TTITLE10=Coal Miner's Daughter
TTITLE11=You Wanna Give Me A Lift
TTITLE12=Wings Upon Your Horns
TTITLE13=The One You Need
TTITLE14=Deep As Your Pocket
TTITLE15=Crazy Out Of My Mind
TTITLE16=I Know How 
TTITLE17=After The Fire Is Gone
TTITLE18=Lead Me On
TTITLE19=I Wanna Be Free
TTITLE20=You're Lookin' At Country
TTITLE21=One's On The Way
TTITLE22=Rated X
EXTD=more info - MillenniumMusicProjectFormat - SYNTAX=\nSongTitle{Subti
EXTD=tle}[miscInfo](date,Lyricist;date,Composer;date,Artist,Location,S
EXTD=tate,Country)
EXTT0=
EXTT1=
EXTT2=
EXTT3=
EXTT4=
EXTT5=
EXTT6=
EXTT7=
EXTT8=
EXTT9=
EXTT10=
EXTT11=
EXTT12=
EXTT13=
EXTT14=
EXTT15=
EXTT16=
EXTT17=
EXTT18=
EXTT19=
EXTT20=
EXTT21=
EXTT22=
PLAYORDER=
